<svg xmlns="http://www.w3.org/2000/svg" width="94.398" height="119.299" viewBox="0 0 94.398 119.299"><defs><style>.a{fill:#4e0911;}</style></defs><path class="a" d="M145.883,94.939c-.351-.228-2.99-2.077-5.633-7.67C135.4,77,134.378,62.529,134.378,52.2c0-.045,0-.089,0-.134a33.849,33.849,0,0,0-19.925-30.7V13.29A13.294,13.294,0,0,0,101.183,0h-1.1A13.294,13.294,0,0,0,86.815,13.29v8.075A33.85,33.85,0,0,0,66.888,52.2c0,10.329-1.019,24.8-5.872,35.07-2.643,5.593-5.282,7.442-5.633,7.67A3.4,3.4,0,0,0,53.517,98.8a3.556,3.556,0,0,0,3.5,2.732H82.64a17.995,17.995,0,0,0,35.987,0h25.618a3.556,3.556,0,0,0,3.5-2.732A3.4,3.4,0,0,0,145.883,94.939ZM93.806,13.29A6.29,6.29,0,0,1,100.084,7h1.1a6.29,6.29,0,0,1,6.278,6.288V19.1a33.851,33.851,0,0,0-13.655,0V13.29Zm6.827,99.008a11.029,11.029,0,0,1-11-10.762h22.006A11.029,11.029,0,0,1,100.633,112.3Zm14.074-17.764H64.987a36.634,36.634,0,0,0,1.832-3.215c4.684-9.237,7.06-22.4,7.06-39.119a26.754,26.754,0,1,1,53.508.012c0,.043,0,.086,0,.129.013,16.653,2.388,29.768,7.06,38.979a36.662,36.662,0,0,0,1.832,3.215Z" transform="translate(-53.434)"/></svg>